<?xml version="1.0" standalone="no"?>
<!DOCTYPE svg PUBLIC "-//W3C//DTD SVG 20010904//EN"
 "http://www.w3.org/TR/2001/REC-SVG-20010904/DTD/svg10.dtd">
<svg version="1.0" xmlns="http://www.w3.org/2000/svg"
 width="161.000000pt" height="153.000000pt" viewBox="0 0 161.000000 153.000000"
 preserveAspectRatio="xMidYMid meet">

<g transform="translate(0.000000,153.000000) scale(0.100000,-0.100000)"
fill="#000000" stroke="none">
<path d="M1316 1509 c-85 -29 -104 -45 -141 -118 -160 -318 -256 -667 -320
-1162 -5 -36 -11 -49 -30 -57 -14 -7 -25 -16 -25 -22 0 -19 -21 -10 -65 31
-52 48 -112 160 -180 339 -27 69 -55 135 -62 147 -14 21 -12 23 46 52 117 59
248 203 325 358 62 123 145 391 129 416 -8 13 -101 -1 -149 -23 -38 -16 -42
-22 -49 -66 -26 -174 -102 -377 -183 -486 -46 -63 -137 -146 -168 -154 -13 -3
-35 4 -56 18 -20 13 -42 28 -51 33 -14 9 -13 28 9 178 14 93 35 220 48 283 13
63 20 116 17 119 -10 5 -120 -41 -140 -59 -22 -20 -35 -74 -75 -315 l-31 -185
-49 -12 c-69 -18 -100 -43 -104 -86 -4 -45 27 -85 74 -94 19 -3 36 -10 39 -14
2 -4 -12 -86 -31 -183 -21 -99 -34 -187 -30 -201 13 -51 134 -100 163 -65 8
11 64 382 63 426 0 21 31 43 60 43 33 0 39 -13 91 -195 17 -60 44 -145 61
-187 50 -132 158 -222 245 -205 20 4 23 0 23 -24 0 -35 15 -37 70 -9 115 59
298 100 440 100 110 -1 160 -10 248 -47 76 -31 95 -23 65 29 -24 41 -89 82
-184 115 -85 29 -267 42 -357 25 l-54 -10 7 62 c28 270 107 522 331 1053 35
84 64 157 64 163 0 14 -16 12 -84 -11z m-1166 -751 c0 -32 -11 -68 -20 -68 -4
0 -18 9 -31 20 l-24 20 28 25 c35 31 47 32 47 3z m180 -33 c10 -12 10 -15 -4
-15 -9 0 -16 7 -16 15 0 8 2 15 4 15 2 0 9 -7 16 -15z"/>
</g>
</svg>
